<?xml version="1.0" encoding="UTF-8"?>
<svg width="19px" height="20px" viewBox="0 0 19 20" version="1.1" xmlns="http://www.w3.org/2000/svg" xmlns:xlink="http://www.w3.org/1999/xlink">
    <!-- Generator: Sketch 49 (51002) - http://www.bohemiancoding.com/sketch -->
    <title>magnifying-glass-browser</title>
    <desc>Created with Sketch.</desc>
    <defs></defs>
    <g id="Welcome" stroke="none" stroke-width="1" fill="none" fill-rule="evenodd">
        <g id="Desktop-HD-Copy-4" transform="translate(-1328.000000, -52.000000)" fill="#000000" fill-rule="nonzero">
            <g id="magnifying-glass-browser" transform="translate(1328.000000, 52.000000)">
                <path d="M13.19629,13.0309917 C14.4474136,11.6494628 15.2279531,9.79958678 15.2279531,7.76239669 C15.2279531,3.48896694 11.8188913,0 7.61782516,0 C3.41675906,0 0.00769722814,3.48896694 0.00769722814,7.76239669 C0.00769722814,12.0358264 3.41675906,15.5247934 7.61782516,15.5247934 C9.32810874,15.5247934 10.9006119,14.9511157 12.1747058,13.9793388 L17.8335053,19.7513636 C17.9712452,19.8918595 18.14342,19.9621074 18.3155949,19.9621074 C18.4877697,19.9621074 18.6714094,19.8918595 18.7976844,19.7513636 C19.0616994,19.4820661 19.0616994,19.0371901 18.7976844,18.7561983 L13.19629,13.0309917 Z M1.38509595,7.76239669 C1.38509595,4.26169421 4.17432836,1.40495868 7.61782516,1.40495868 C11.0498571,1.40495868 13.8505544,4.25 13.8505544,7.76239669 C13.8505544,11.2747934 11.061322,14.1198347 7.61782516,14.1198347 C4.17432836,14.1198347 1.38509595,11.2630992 1.38509595,7.76239669 Z" id="Shape"></path>
            </g>
        </g>
    </g>
</svg>